{
	"asset":{
		"generator":"Khronos glTF Blender I/O v4.2.57",
		"version":"2.0"
	},
	"scene":0,
	"scenes":[
		{
			"name":"AMX_actor-one",
			"nodes":[
				68
			]
		}
	],
	"nodes":[
		{
			"name":"HeadTop_End",
			"rotation":[
				-0.003611803986132145,
				2.809524914937356e-07,
				2.99889364896444e-07,
				0.9999935030937195
			],
			"scale":[
				1,
				1,
				0.9999999403953552
			],
			"translation":[
				1.416575479140647e-08,
				0.22634494304656982,
				0.03732243552803993
			]
		},
		{
			"name":"LeftEye",
			"rotation":[
				-0.0036110682412981987,
				6.928160445340836e-08,
				5.980616180067955e-08,
				0.9999935030937195
			],
			"scale":[
				1,
				0.9999999403953552,
				0.9999999403953552
			],
			"translation":[
				0.030352696776390076,
				0.08783973008394241,
				0.08240614831447601
			]
		},
		{
			"name":"RightEye",
			"rotation":[
				-0.0036110382061451674,
				6.928161155883572e-08,
				5.980616180067955e-08,
				0.9999935030937195
			],
			"scale":[
				1,
				0.9999999403953552,
				0.9999999403953552
			],
			"translation":[
				-0.029882267117500305,
				0.0877910852432251,
				0.08240654319524765
			]
		},
		{
			"children":[
				0,
				1,
				2
			],
			"name":"Head",
			"rotation":[
				-0.16267603635787964,
				-3.1318901960730727e-07,
				-3.827303203252086e-07,
				0.9866795539855957
			],
			"scale":[
				1,
				0.9999999403953552,
				0.9999999403953552
			],
			"translation":[
				-2.1926627180590685e-12,
				0.12263814359903336,
				-4.657030316934652e-10
			]
		},
		{
			"children":[
				3
			],
			"name":"Neck",
			"rotation":[
				0.2030688226222992,
				7.390168121901297e-08,
				1.0773187852919364e-07,
				0.9791644811630249
			],
			"translation":[
				4.756195437494171e-13,
				0.1555749475955963,
				-2.98022992950564e-08
			]
		},
		{
			"name":"LeftHandThumb4",
			"rotation":[
				0.01297545526176691,
				0.0523860938847065,
				-0.00692931842058897,
				0.9985185861587524
			],
			"scale":[
				0.9999999403953552,
				0.9999998211860657,
				0.9999998211860657
			],
			"translation":[
				6.705522537231445e-08,
				0.03528503328561783,
				-9.313225746154785e-08
			]
		},
		{
			"children":[
				5
			],
			"name":"LeftHandThumb3",
			"rotation":[
				0.009754368104040623,
				-0.02480195462703705,
				-0.08479475229978561,
				0.996042013168335
			],
			"translation":[
				-1.4901161193847656e-08,
				0.030486783012747765,
				1.0803341865539551e-07
			]
		},
		{
			"children":[
				6
			],
			"name":"LeftHandThumb2",
			"rotation":[
				0.050506576895713806,
				-0.07432584464550018,
				-0.2498457431793213,
				0.9641067981719971
			],
			"scale":[
				1,
				0.9999998807907104,
				1
			],
			"translation":[
				1.2293457984924316e-07,
				0.041382722556591034,
				1.341104507446289e-07
			]
		},
		{
			"children":[
				7
			],
			"name":"LeftHandThumb1",
			"rotation":[
				0.16801580786705017,
				-0.009933950379490852,
				0.4148876368999481,
				0.8941701650619507
			],
			"scale":[
				0.9999999403953552,
				1,
				0.9999998807907104
			],
			"translation":[
				-0.03235587477684021,
				0.026351692155003548,
				0.0051727937534451485
			]
		},
		{
			"name":"LeftHandIndex4",
			"rotation":[
				0.04478377848863602,
				0.05674627423286438,
				-0.00713299959897995,
				0.9973582029342651
			],
			"scale":[
				0.9999999403953552,
				1,
				1
			],
			"translation":[
				7.82310962677002e-08,
				0.033838823437690735,
				1.2293457984924316e-07
			]
		},
		{
			"children":[
				9
			],
			"name":"LeftHandIndex3",
			"rotation":[
				0.0844239816069603,
				-0.07587216794490814,
				-0.0212712362408638,
				0.9933093786239624
			],
			"scale":[
				1,
				1.0000001192092896,
				1
			],
			"translation":[
				6.705522537231445e-08,
				0.02834548056125641,
				1.955777406692505e-07
			]
		},
		{
			"children":[
				10
			],
			"name":"LeftHandIndex2",
			"rotation":[
				0.09492924809455872,
				-0.005798941478133202,
				0.025652695447206497,
				0.9951366186141968
			],
			"scale":[
				1,
				0.9999999403953552,
				1
			],
			"translation":[
				6.705522537231445e-08,
				0.04467856511473656,
				-1.471489667892456e-07
			]
		},
		{
			"children":[
				11
			],
			"name":"LeftHandIndex1",
			"rotation":[
				0.09073031693696976,
				-0.05149146169424057,
				0.07105834037065506,
				0.9920016527175903
			],
			"scale":[
				1,
				1.0000001192092896,
				0.9999999403953552
			],
			"translation":[
				-0.035346560180187225,
				0.09745369106531143,
				-0.006952260620892048
			]
		},
		{
			"name":"LeftHandMiddle4",
			"rotation":[
				0.023813750594854355,
				0.02245878241956234,
				-0.0016470452537760139,
				0.9994627833366394
			],
			"scale":[
				0.9999998807907104,
				0.9999999403953552,
				1
			],
			"translation":[
				-5.960464477539063e-08,
				0.03456239774823189,
				-6.146728992462158e-08
			]
		},
		{
			"children":[
				13
			],
			"name":"LeftHandMiddle3",
			"rotation":[
				0.20182478427886963,
				-0.022600088268518448,
				-0.043592486530542374,
				0.978190004825592
			],
			"scale":[
				0.9999998807907104,
				0.9999998807907104,
				0.9999998807907104
			],
			"translation":[
				2.9802322387695312e-08,
				0.03540728613734245,
				2.2351741790771484e-07
			]
		},
		{
			"children":[
				14
			],
			"name":"LeftHandMiddle2",
			"rotation":[
				0.12757708132266998,
				-0.009709261357784271,
				0.04308576136827469,
				0.9908447861671448
			],
			"scale":[
				0.9999999403953552,
				1,
				0.9999999403953552
			],
			"translation":[
				5.21540641784668e-08,
				0.04569803923368454,
				1.1634256225079298e-07
			]
		},
		{
			"children":[
				15
			],
			"name":"LeftHandMiddle1",
			"rotation":[
				0.038724303245544434,
				-0.06741389632225037,
				0.015206340700387955,
				0.9968573451042175
			],
			"scale":[
				1.0000001192092896,
				1,
				1
			],
			"translation":[
				-0.009198956191539764,
				0.10019718110561371,
				-0.0034846733324229717
			]
		},
		{
			"name":"LeftHandRing4",
			"rotation":[
				0.006650525610893965,
				-0.006898311898112297,
				0.02211635559797287,
				0.9997094869613647
			],
			"scale":[
				0.9999998807907104,
				1,
				0.9999999403953552
			],
			"translation":[
				2.2351741790771484e-08,
				0.029813211411237717,
				-3.259629011154175e-09
			]
		},
		{
			"children":[
				17
			],
			"name":"LeftHandRing3",
			"rotation":[
				0.03905654698610306,
				-0.005788950249552727,
				0.001896212692372501,
				0.9992184638977051
			],
			"scale":[
				1,
				0.9999999403953552,
				1
			],
			"translation":[
				-1.862645149230957e-08,
				0.036163199692964554,
				-1.3364478945732117e-07
			]
		},
		{
			"children":[
				18
			],
			"name":"LeftHandRing2",
			"rotation":[
				0.1862281709909439,
				-0.016196008771657944,
				0.04585663229227066,
				0.9813022017478943
			],
			"scale":[
				0.9999999403953552,
				0.9999999403953552,
				1
			],
			"translation":[
				7.078051567077637e-08,
				0.04189962148666382,
				-9.639188647270203e-08
			]
		},
		{
			"children":[
				19
			],
			"name":"LeftHandRing1",
			"rotation":[
				0.06409980356693268,
				-0.05493025481700897,
				-0.057973332703113556,
				0.9947426915168762
			],
			"scale":[
				0.9999998211860657,
				0.9999999403953552,
				0.9999999403953552
			],
			"translation":[
				0.015421837568283081,
				0.09560393542051315,
				0.002229871693998575
			]
		},
		{
			"name":"LeftHandPinky4",
			"rotation":[
				0.13740397989749908,
				0.104530930519104,
				-0.012381906621158123,
				0.9849061369895935
			],
			"translation":[
				-8.195638656616211e-08,
				0.026324138045310974,
				-2.3748725652694702e-07
			]
		},
		{
			"children":[
				21
			],
			"name":"LeftHandPinky3",
			"rotation":[
				0.12270571291446686,
				-0.011933409608900547,
				0.012157624587416649,
				0.9922969341278076
			],
			"scale":[
				1,
				1,
				0.9999999403953552
			],
			"translation":[
				8.381903171539307e-08,
				0.022376060485839844,
				4.377216100692749e-08
			]
		},
		{
			"children":[
				22
			],
			"name":"LeftHandPinky2",
			"rotation":[
				0.12148122489452362,
				-0.21082830429077148,
				0.05947575345635414,
				0.9681200385093689
			],
			"scale":[
				1,
				1,
				0.9999999403953552
			],
			"translation":[
				-8.731149137020111e-09,
				0.028152329847216606,
				-7.807102520018816e-08
			]
		},
		{
			"children":[
				23
			],
			"name":"LeftHandPinky1",
			"rotation":[
				0.0990385189652443,
				-0.07101674377918243,
				-0.15525266528129578,
				0.9803288578987122
			],
			"scale":[
				0.9999998807907104,
				1.0000001192092896,
				0.9999999403953552
			],
			"translation":[
				0.039131514728069305,
				0.08981315791606903,
				0.010544225573539734
			]
		},
		{
			"children":[
				8,
				12,
				16,
				20,
				24
			],
			"name":"LeftHand",
			"rotation":[
				0.04622747004032135,
				0.03871822729706764,
				-0.01851746439933777,
				0.9980085492134094
			],
			"scale":[
				0.9999999403953552,
				0.9999998807907104,
				0.9999998807907104
			],
			"translation":[
				1.1362135410308838e-07,
				0.25197190046310425,
				-2.094384399242699e-08
			]
		},
		{
			"children":[
				25
			],
			"name":"LeftForeArm",
			"rotation":[
				-0.04964984580874443,
				0.023287668824195862,
				0.22048118710517883,
				0.9738483428955078
			],
			"scale":[
				0.9999998211860657,
				1,
				0.9999998807907104
			],
			"translation":[
				4.284083843231201e-08,
				0.28512901067733765,
				-7.55535438656807e-08
			]
		},
		{
			"children":[
				26
			],
			"name":"LeftArm",
			"rotation":[
				0.47668221592903137,
				0.04260031878948212,
				-0.05861914902925491,
				0.8760839700698853
			],
			"scale":[
				1.0000001192092896,
				1,
				1
			],
			"translation":[
				-4.551839083433151e-08,
				0.11889557540416718,
				4.400499165058136e-07
			]
		},
		{
			"children":[
				27
			],
			"name":"LeftShoulder",
			"rotation":[
				0.5049360394477844,
				0.4894798696041107,
				-0.5147032737731934,
				0.4904382526874542
			],
			"translation":[
				0.04713555797934532,
				0.14114828407764435,
				-0.006255103275179863
			]
		},
		{
			"name":"RightHandThumb4",
			"rotation":[
				0.012980641797184944,
				-0.052378036081790924,
				0.006926192436367273,
				0.9985190033912659
			],
			"scale":[
				1,
				0.9999998211860657,
				1
			],
			"translation":[
				1.4156103134155273e-07,
				0.035284917801618576,
				-1.0803341865539551e-07
			]
		},
		{
			"children":[
				29
			],
			"name":"RightHandThumb3",
			"rotation":[
				0.009762954898178577,
				0.024816304445266724,
				0.08479556441307068,
				0.996041476726532
			],
			"scale":[
				0.9999999403953552,
				1,
				0.9999999403953552
			],
			"translation":[
				-7.450580596923828e-08,
				0.030486606061458588,
				1.0803341865539551e-07
			]
		},
		{
			"children":[
				30
			],
			"name":"RightHandThumb2",
			"rotation":[
				0.05050240084528923,
				0.07431265711784363,
				0.2498447448015213,
				0.9641082882881165
			],
			"scale":[
				1,
				1.0000001192092896,
				1
			],
			"translation":[
				2.0116567611694336e-07,
				0.04138226807117462,
				-4.470348358154297e-08
			]
		},
		{
			"children":[
				31
			],
			"name":"RightHandThumb1",
			"rotation":[
				0.16801539063453674,
				0.009928030893206596,
				-0.41488656401634216,
				0.8941708207130432
			],
			"scale":[
				0.9999999403953552,
				0.9999999403953552,
				1
			],
			"translation":[
				0.032355897128582,
				0.026352031156420708,
				0.0051730177365243435
			]
		},
		{
			"name":"RightHandIndex4",
			"rotation":[
				0.04479430988430977,
				-0.056735243648290634,
				0.007136939093470573,
				0.9973583221435547
			],
			"scale":[
				0.9999998807907104,
				1,
				0.9999998807907104
			],
			"translation":[
				3.725290298461914e-08,
				0.03383868932723999,
				1.1455267667770386e-07
			]
		},
		{
			"children":[
				33
			],
			"name":"RightHandIndex3",
			"rotation":[
				0.08441610634326935,
				0.07586338371038437,
				0.021272173151373863,
				0.9933107495307922
			],
			"scale":[
				1,
				0.9999999403953552,
				0.9999999403953552
			],
			"translation":[
				-1.1175870895385742e-07,
				0.028345774859189987,
				1.6205012798309326e-07
			]
		},
		{
			"children":[
				34
			],
			"name":"RightHandIndex2",
			"rotation":[
				0.09493099898099899,
				0.005800331477075815,
				-0.025654561817646027,
				0.9951363801956177
			],
			"scale":[
				1,
				0.9999999403953552,
				1
			],
			"translation":[
				6.705522537231445e-08,
				0.04467850923538208,
				9.685754776000977e-08
			]
		},
		{
			"children":[
				35
			],
			"name":"RightHandIndex1",
			"rotation":[
				0.09072751551866531,
				0.05148712173104286,
				-0.07105856388807297,
				0.9920021295547485
			],
			"scale":[
				1,
				1.0000001192092896,
				0.9999999403953552
			],
			"translation":[
				0.03534626215696335,
				0.09745407104492188,
				-0.006952122785151005
			]
		},
		{
			"name":"RightHandMiddle4",
			"rotation":[
				0.02380463480949402,
				-0.02246817946434021,
				0.0016420562751591206,
				0.9994627833366394
			],
			"scale":[
				0.9999998807907104,
				0.9999997615814209,
				0.9999999403953552
			],
			"translation":[
				1.4901161193847656e-08,
				0.03456263989210129,
				-8.568167686462402e-08
			]
		},
		{
			"children":[
				37
			],
			"name":"RightHandMiddle3",
			"rotation":[
				0.2018279731273651,
				0.02260330319404602,
				0.04359404742717743,
				0.97818922996521
			],
			"scale":[
				1,
				1,
				1.0000001192092896
			],
			"translation":[
				-6.705522537231445e-08,
				0.035407524555921555,
				-1.5366822481155396e-07
			]
		},
		{
			"children":[
				38
			],
			"name":"RightHandMiddle2",
			"rotation":[
				0.1275782287120819,
				0.009707310236990452,
				-0.04308416694402695,
				0.9908447265625
			],
			"scale":[
				1,
				0.9999998807907104,
				0.9999999403953552
			],
			"translation":[
				2.086162567138672e-07,
				0.04569776728749275,
				-1.0266376193612814e-07
			]
		},
		{
			"children":[
				39
			],
			"name":"RightHandMiddle1",
			"rotation":[
				0.03872130066156387,
				0.06741160154342651,
				-0.015207313932478428,
				0.9968576431274414
			],
			"translation":[
				0.00919874757528305,
				0.10019782185554504,
				-0.003484271001070738
			]
		},
		{
			"name":"RightHandRing4",
			"rotation":[
				0.006657999008893967,
				0.006906529422849417,
				-0.022115347906947136,
				0.99970942735672
			],
			"scale":[
				1,
				1.0000001192092896,
				1.0000001192092896
			],
			"translation":[
				5.21540641784668e-08,
				0.02981286123394966,
				-1.5925616025924683e-07
			]
		},
		{
			"children":[
				41
			],
			"name":"RightHandRing3",
			"rotation":[
				0.03906070813536644,
				0.00579560361802578,
				-0.0018975563580170274,
				0.999218225479126
			],
			"scale":[
				1,
				0.9999999403953552,
				1
			],
			"translation":[
				1.1175870895385742e-08,
				0.036162570118904114,
				2.468004822731018e-08
			]
		},
		{
			"children":[
				42
			],
			"name":"RightHandRing2",
			"rotation":[
				0.18622542917728424,
				0.01619246043264866,
				-0.045855455100536346,
				0.981302797794342
			],
			"scale":[
				0.9999999403953552,
				1.0000001192092896,
				1
			],
			"translation":[
				-6.705522537231445e-08,
				0.04190048575401306,
				-4.400499165058136e-08
			]
		},
		{
			"children":[
				43
			],
			"name":"RightHandRing1",
			"rotation":[
				0.06409570574760437,
				0.054925836622714996,
				0.05797260254621506,
				0.9947432279586792
			],
			"scale":[
				0.9999999403953552,
				1,
				1
			],
			"translation":[
				-0.015422068536281586,
				0.09560423344373703,
				0.0022296858951449394
			]
		},
		{
			"name":"RightHandPinky4",
			"rotation":[
				0.1373993307352066,
				-0.10453589260578156,
				0.012381692416965961,
				0.9849062561988831
			],
			"scale":[
				1.0000001192092896,
				1,
				1.0000001192092896
			],
			"translation":[
				5.21540641784668e-08,
				0.026324285194277763,
				6.51925802230835e-09
			]
		},
		{
			"children":[
				45
			],
			"name":"RightHandPinky3",
			"rotation":[
				0.12270543724298477,
				0.01193254254758358,
				-0.012159776873886585,
				0.9922969341278076
			],
			"scale":[
				0.9999999403953552,
				0.9999998807907104,
				0.9999998807907104
			],
			"translation":[
				-9.313225746154785e-09,
				0.02237587794661522,
				-3.557652235031128e-07
			]
		},
		{
			"children":[
				46
			],
			"name":"RightHandPinky2",
			"rotation":[
				0.12148074060678482,
				0.2108273059129715,
				-0.05947456136345863,
				0.9681203961372375
			],
			"scale":[
				1,
				1.0000001192092896,
				1.0000001192092896
			],
			"translation":[
				3.9814040064811707e-08,
				0.02815219573676586,
				3.1785748433321714e-07
			]
		},
		{
			"children":[
				47
			],
			"name":"RightHandPinky1",
			"rotation":[
				0.09903530776500702,
				0.07101291418075562,
				0.15525300800800323,
				0.9803293943405151
			],
			"scale":[
				1.0000001192092896,
				0.9999999403953552,
				1
			],
			"translation":[
				-0.039131805300712585,
				0.08981356024742126,
				0.010543562471866608
			]
		},
		{
			"children":[
				32,
				36,
				40,
				44,
				48
			],
			"name":"RightHand",
			"rotation":[
				0.04623015597462654,
				-0.03871484100818634,
				0.01851760968565941,
				0.9980085492134094
			],
			"scale":[
				0.9999999403953552,
				1,
				0.9999999403953552
			],
			"translation":[
				-4.842877388000488e-08,
				0.2519720494747162,
				2.074866642942652e-07
			]
		},
		{
			"children":[
				49
			],
			"name":"RightForeArm",
			"rotation":[
				-0.049649082124233246,
				-0.023285729810595512,
				-0.22048118710517883,
				0.9738484025001526
			],
			"scale":[
				1,
				1.0000001192092896,
				1
			],
			"translation":[
				-6.891787052154541e-08,
				0.28512808680534363,
				4.0046870708465576e-08
			]
		},
		{
			"children":[
				50
			],
			"name":"RightArm",
			"rotation":[
				0.47668060660362244,
				-0.04260198399424553,
				0.0586194172501564,
				0.8760847449302673
			],
			"translation":[
				-1.664739102125168e-08,
				0.1188957616686821,
				-2.728775143623352e-07
			]
		},
		{
			"children":[
				51
			],
			"name":"RightShoulder",
			"rotation":[
				0.5049320459365845,
				-0.4894828200340271,
				0.514700710773468,
				0.4904419779777527
			],
			"scale":[
				1.0000001192092896,
				1,
				1.0000001192092896
			],
			"translation":[
				-0.047135453671216965,
				0.14114810526371002,
				-0.006255121901631355
			]
		},
		{
			"children":[
				4,
				28,
				52
			],
			"name":"Spine2",
			"rotation":[
				0.0472012534737587,
				-2.7526962753654516e-07,
				1.1573859381996954e-07,
				0.998885452747345
			],
			"scale":[
				1,
				1,
				0.9999999403953552
			],
			"translation":[
				4.227729277772596e-13,
				0.12180644273757935,
				7.450568162425952e-09
			]
		},
		{
			"children":[
				53
			],
			"name":"Spine1",
			"rotation":[
				-0.03217382729053497,
				6.980228306474601e-08,
				9.873544115635013e-08,
				0.999482274055481
			],
			"scale":[
				1,
				0.9999999403953552,
				1
			],
			"translation":[
				2.2092744300650224e-13,
				0.13049732148647308,
				2.5785992008309222e-08
			]
		},
		{
			"children":[
				54
			],
			"name":"Spine",
			"rotation":[
				-0.0686936154961586,
				2.6276313292328268e-05,
				1.817893917177571e-06,
				0.9976378083229065
			],
			"translation":[
				6.112332862073799e-13,
				0.0984732061624527,
				2.937580734219125e-14
			]
		},
		{
			"name":"LeftToe_End",
			"rotation":[
				0.006907887756824493,
				0.6984108090400696,
				0.017670322209596634,
				0.7154455780982971
			],
			"scale":[
				1.0000001192092896,
				1.0000001192092896,
				1
			],
			"translation":[
				-5.484180292114615e-07,
				0.09907488524913788,
				6.629852578043938e-08
			]
		},
		{
			"children":[
				56
			],
			"name":"LeftToeBase",
			"rotation":[
				0.2682289183139801,
				-0.04375353455543518,
				0.01854666694998741,
				0.9621824026107788
			],
			"scale":[
				0.9999998807907104,
				0.9999999403953552,
				1
			],
			"translation":[
				3.986060619354248e-07,
				0.1488443911075592,
				-4.470348358154297e-08
			]
		},
		{
			"children":[
				57
			],
			"name":"LeftFoot",
			"rotation":[
				0.5074411630630493,
				0.016668548807501793,
				0.0015593046555295587,
				0.8615237474441528
			],
			"scale":[
				0.9999998807907104,
				0.9999998211860657,
				0.9999998807907104
			],
			"translation":[
				3.1907984521239996e-07,
				0.443858802318573,
				-4.127796273678541e-07
			]
		},
		{
			"children":[
				58
			],
			"name":"LeftLeg",
			"rotation":[
				-0.04165502265095711,
				-0.00030811200849711895,
				-0.002911485033109784,
				0.9991278052330017
			],
			"scale":[
				0.9999998807907104,
				1,
				0.9999998807907104
			],
			"translation":[
				-3.087279765168205e-09,
				0.4581736922264099,
				-2.6193447411060333e-10
			]
		},
		{
			"children":[
				59
			],
			"name":"LeftUpLeg",
			"rotation":[
				0.0014231893001124263,
				-0.00961387064307928,
				-0.9994101524353027,
				0.03293796628713608
			],
			"scale":[
				1.0000050067901611,
				1,
				1.0000004768371582
			],
			"translation":[
				0.09534371644258499,
				0.005192707292735577,
				-0.0033023017458617687
			]
		},
		{
			"name":"RightToe_End",
			"rotation":[
				0.006907148752361536,
				-0.6984314322471619,
				-0.01767033524811268,
				0.715425431728363
			],
			"scale":[
				0.9999998807907104,
				0.9999998211860657,
				0.9999999403953552
			],
			"translation":[
				5.364854587242007e-07,
				0.09907480329275131,
				4.423782229423523e-08
			]
		},
		{
			"children":[
				61
			],
			"name":"RightToeBase",
			"rotation":[
				0.26822981238365173,
				0.04374726116657257,
				-0.018555371090769768,
				0.9621822237968445
			],
			"scale":[
				0.9999998807907104,
				1,
				0.9999999403953552
			],
			"translation":[
				-7.310882210731506e-08,
				0.14884403347969055,
				1.2479722499847412e-07
			]
		},
		{
			"children":[
				62
			],
			"name":"RightFoot",
			"rotation":[
				0.507440984249115,
				-0.0166665967553854,
				-0.0015561648178845644,
				0.8615239262580872
			],
			"scale":[
				0.9999998807907104,
				0.9999999403953552,
				0.9999999403953552
			],
			"translation":[
				2.153683453798294e-09,
				0.4438593089580536,
				1.979060471057892e-09
			]
		},
		{
			"children":[
				63
			],
			"name":"RightLeg",
			"rotation":[
				-0.04165533930063248,
				0.0003089169040322304,
				0.0029118633829057217,
				0.9991278052330017
			],
			"scale":[
				1,
				0.9999999403953552,
				0.9999999403953552
			],
			"translation":[
				2.5574991013854742e-08,
				0.45817437767982483,
				-2.6193447411060333e-10
			]
		},
		{
			"children":[
				64
			],
			"name":"RightUpLeg",
			"rotation":[
				0.0014776851749047637,
				0.009615626186132431,
				0.999410092830658,
				0.03293760493397713
			],
			"scale":[
				1.0000050067901611,
				1,
				1.0000004768371582
			],
			"translation":[
				-0.09534404426813126,
				0.005192945711314678,
				-0.003292333334684372
			]
		},
		{
			"children":[
				55,
				60,
				65
			],
			"name":"Hips",
			"rotation":[
				0.016230382025241852,
				-2.6236550183966756e-05,
				-4.2303415170863445e-07,
				0.9998682737350464
			],
			"translation":[
				8.767874122052322e-13,
				1.0191901922225952,
				0.01003055740147829
			]
		},
		{
			"mesh":0,
			"name":"Wolf3D_Avatar",
			"skin":0
		},
		{
			"children":[
				67,
				66
			],
			"name":"Armature"
		}
	],
	"materials":[
		{
			"name":"Wolf3D_Avatar",
			"normalTexture":{
				"index":0
			},
			"pbrMetallicRoughness":{
				"baseColorTexture":{
					"index":1
				},
				"metallicFactor":0,
				"metallicRoughnessTexture":{
					"index":2
				}
			}
		}
	],
	"meshes":[
		{
			"extras":{
				"targetNames":[
					"mouthOpen",
					"mouthSmile",
					"browDownLeft",
					"browDownRight",
					"browInnerUp",
					"browOuterUpLeft",
					"browOuterUpRight",
					"eyeSquintLeft",
					"eyeSquintRight",
					"eyeWideLeft",
					"eyeWideRight",
					"jawForward",
					"jawLeft",
					"jawRight",
					"mouthFrownLeft",
					"mouthFrownRight",
					"mouthPucker",
					"mouthShrugLower",
					"mouthShrugUpper",
					"noseSneerLeft",
					"noseSneerRight",
					"mouthLowerDownLeft",
					"mouthLowerDownRight",
					"mouthLeft",
					"mouthRight",
					"eyeLookDownLeft",
					"eyeLookDownRight",
					"eyeLookUpLeft",
					"eyeLookUpRight",
					"eyeLookInLeft",
					"eyeLookInRight",
					"eyeLookOutLeft",
					"eyeLookOutRight",
					"cheekPuff",
					"cheekSquintLeft",
					"cheekSquintRight",
					"jawOpen",
					"mouthClose",
					"mouthFunnel",
					"mouthDimpleLeft",
					"mouthDimpleRight",
					"mouthStretchLeft",
					"mouthStretchRight",
					"mouthRollLower",
					"mouthRollUpper",
					"mouthPressLeft",
					"mouthPressRight",
					"mouthUpperUpLeft",
					"mouthUpperUpRight",
					"mouthSmileLeft",
					"mouthSmileRight",
					"tongueOut",
					"eyeBlinkLeft",
					"eyeBlinkRight",
					"eyesClosed",
					"eyesLookUp",
					"eyesLookDown"
				]
			},
			"name":"actor-one_Wolf3D_Avatar",
			"primitives":[
				{
					"attributes":{
						"POSITION":0,
						"NORMAL":1,
						"TEXCOORD_0":2,
						"JOINTS_0":3,
						"WEIGHTS_0":4
					},
					"indices":5,
					"material":0,
					"targets":[
						{
							"POSITION":6,
							"NORMAL":7
						},
						{
							"POSITION":8,
							"NORMAL":9
						},
						{
							"POSITION":10,
							"NORMAL":11
						},
						{
							"POSITION":12,
							"NORMAL":13
						},
						{
							"POSITION":14,
							"NORMAL":15
						},
						{
							"POSITION":16,
							"NORMAL":17
						},
						{
							"POSITION":18,
							"NORMAL":19
						},
						{
							"POSITION":20,
							"NORMAL":21
						},
						{
							"POSITION":22,
							"NORMAL":23
						},
						{
							"POSITION":24,
							"NORMAL":25
						},
						{
							"POSITION":26,
							"NORMAL":27
						},
						{
							"POSITION":28,
							"NORMAL":29
						},
						{
							"POSITION":30,
							"NORMAL":31
						},
						{
							"POSITION":32,
							"NORMAL":33
						},
						{
							"POSITION":34,
							"NORMAL":35
						},
						{
							"POSITION":36,
							"NORMAL":37
						},
						{
							"POSITION":38,
							"NORMAL":39
						},
						{
							"POSITION":40,
							"NORMAL":41
						},
						{
							"POSITION":42,
							"NORMAL":43
						},
						{
							"POSITION":44,
							"NORMAL":45
						},
						{
							"POSITION":46,
							"NORMAL":47
						},
						{
							"POSITION":48,
							"NORMAL":49
						},
						{
							"POSITION":50,
							"NORMAL":51
						},
						{
							"POSITION":52,
							"NORMAL":53
						},
						{
							"POSITION":54,
							"NORMAL":55
						},
						{
							"POSITION":56,
							"NORMAL":57
						},
						{
							"POSITION":58,
							"NORMAL":59
						},
						{
							"POSITION":60,
							"NORMAL":61
						},
						{
							"POSITION":62,
							"NORMAL":63
						},
						{
							"POSITION":64,
							"NORMAL":65
						},
						{
							"POSITION":66,
							"NORMAL":67
						},
						{
							"POSITION":68,
							"NORMAL":69
						},
						{
							"POSITION":70,
							"NORMAL":71
						},
						{
							"POSITION":72,
							"NORMAL":73
						},
						{
							"POSITION":74,
							"NORMAL":75
						},
						{
							"POSITION":76,
							"NORMAL":77
						},
						{
							"POSITION":78,
							"NORMAL":79
						},
						{
							"POSITION":80,
							"NORMAL":81
						},
						{
							"POSITION":82,
							"NORMAL":83
						},
						{
							"POSITION":84,
							"NORMAL":85
						},
						{
							"POSITION":86,
							"NORMAL":87
						},
						{
							"POSITION":88,
							"NORMAL":89
						},
						{
							"POSITION":90,
							"NORMAL":91
						},
						{
							"POSITION":92,
							"NORMAL":93
						},
						{
							"POSITION":94,
							"NORMAL":95
						},
						{
							"POSITION":96,
							"NORMAL":97
						},
						{
							"POSITION":98,
							"NORMAL":99
						},
						{
							"POSITION":100,
							"NORMAL":101
						},
						{
							"POSITION":102,
							"NORMAL":103
						},
						{
							"POSITION":104,
							"NORMAL":105
						},
						{
							"POSITION":106,
							"NORMAL":107
						},
						{
							"POSITION":108,
							"NORMAL":109
						},
						{
							"POSITION":110,
							"NORMAL":111
						},
						{
							"POSITION":112,
							"NORMAL":113
						},
						{
							"POSITION":114,
							"NORMAL":115
						},
						{
							"POSITION":116,
							"NORMAL":117
						},
						{
							"POSITION":118,
							"NORMAL":119
						}
					]
				}
			],
			"weights":[
				0,
				0,
				0,
				0,
				0,
				0,
				0,
				0,
				0,
				0,
				0,
				0,
				0,
				0,
				0,
				0,
				0,
				0,
				0,
				0,
				0,
				0,
				0,
				0,
				0,
				0,
				0,
				0,
				0,
				0,
				0,
				0,
				0,
				0,
				0,
				0,
				0,
				0,
				0,
				0,
				0,
				0,
				0,
				0,
				0,
				0,
				0,
				0,
				0,
				0,
				0,
				0,
				0,
				0,
				0,
				0,
				0
			]
		}
	],
	"textures":[
		{
			"sampler":0,
			"source":0
		},
		{
			"sampler":1,
			"source":1
		},
		{
			"sampler":0,
			"source":2
		}
	],
	"images":[
		{
			"mimeType":"image/png",
			"name":"NORMAL_TEXTURE_OPAQUE",
			"uri":"textures/NORMAL_TEXTURE_OPAQUE.png"
		},
		{
			"mimeType":"image/png",
			"name":"BASE_COLOR_TEXTURE_OPAQUE",
			"uri":"textures/BASE_COLOR_TEXTURE_OPAQUE.png"
		},
		{
			"mimeType":"image/png",
			"name":"METALLIC_ROUGHNESS_TEXTURE_OPAQUE",
			"uri":"textures/METALLIC_ROUGHNESS_TEXTURE_OPAQUE.png"
		}
	],
	"skins":[
		{
			"inverseBindMatrices":120,
			"joints":[
				66,
				55,
				54,
				53,
				4,
				3,
				0,
				1,
				2,
				28,
				27,
				26,
				25,
				8,
				7,
				6,
				5,
				12,
				11,
				10,
				9,
				16,
				15,
				14,
				13,
				20,
				19,
				18,
				17,
				24,
				23,
				22,
				21,
				52,
				51,
				50,
				49,
				32,
				31,
				30,
				29,
				36,
				35,
				34,
				33,
				40,
				39,
				38,
				37,
				44,
				43,
				42,
				41,
				48,
				47,
				46,
				45,
				60,
				59,
				58,
				57,
				56,
				65,
				64,
				63,
				62,
				61
			],
			"name":"Armature"
		}
	],
	"accessors":[
		{
			"bufferView":0,
			"componentType":5126,
			"count":9140,
			"max":[
				0.5314633846282959,
				1.931317925453186,
				0.21514800190925598
			],
			"min":[
				-0.531470775604248,
				0.00028178803040646017,
				-0.18233905732631683
			],
			"type":"VEC3"
		},
		{
			"bufferView":1,
			"componentType":5126,
			"count":9140,
			"type":"VEC3"
		},
		{
			"bufferView":2,
			"componentType":5126,
			"count":9140,
			"type":"VEC2"
		},
		{
			"bufferView":3,
			"componentType":5121,
			"count":9140,
			"type":"VEC4"
		},
		{
			"bufferView":4,
			"componentType":5126,
			"count":9140,
			"type":"VEC4"
		},
		{
			"bufferView":5,
			"componentType":5123,
			"count":46521,
			"type":"SCALAR"
		},
		{
			"componentType":5126,
			"count":9140,
			"max":[
				0.001987982541322708,
				0.0007704496383666992,
				0.0056565552949905396
			],
			"min":[
				-0.0019824951887130737,
				-0.010959148406982422,
				-0.004898205399513245
			],
			"sparse":{
				"count":804,
				"indices":{
					"bufferView":6,
					"componentType":5123
				},
				"values":{
					"bufferView":7
				}
			},
			"type":"VEC3"
		},
		{
			"componentType":5126,
			"count":9140,
			"sparse":{
				"count":2504,
				"indices":{
					"bufferView":8,
					"componentType":5123
				},
				"values":{
					"bufferView":9
				}
			},
			"type":"VEC3"
		},
		{
			"componentType":5126,
			"count":9140,
			"max":[
				0.007394928485155106,
				0.012847304344177246,
				0.0024813637137413025
			],
			"min":[
				-0.007395002990961075,
				-0.0010061264038085938,
				-0.0068261027336120605
			],
			"sparse":{
				"count":1468,
				"indices":{
					"bufferView":10,
					"componentType":5123
				},
				"values":{
					"bufferView":11
				}
			},
			"type":"VEC3"
		},
		{
			"componentType":5126,
			"count":9140,
			"sparse":{
				"count":3062,
				"indices":{
					"bufferView":12,
					"componentType":5123
				},
				"values":{
					"bufferView":13
				}
			},
			"type":"VEC3"
		},
		{
			"componentType":5126,
			"count":9140,
			"max":[
				0.0004927613772451878,
				0,
				0.0017292574048042297
			],
			"min":[
				-0.0049616554751992226,
				-0.008431315422058105,
				0
			],
			"sparse":{
				"count":283,
				"indices":{
					"bufferView":14,
					"componentType":5123
				},
				"values":{
					"bufferView":15
				}
			},
			"type":"VEC3"
		},
		{
			"componentType":5126,
			"count":9140,
			"sparse":{
				"count":2061,
				"indices":{
					"bufferView":16,
					"componentType":5123
				},
				"values":{
					"bufferView":17
				}
			},
			"type":"VEC3"
		},
		{
			"componentType":5126,
			"count":9140,
			"max":[
				0.004958190023899078,
				0,
				0.002026572823524475
			],
			"min":[
				-0.001118362881243229,
				-0.008540987968444824,
				0
			],
			"sparse":{
				"count":303,
				"indices":{
					"bufferView":18,
					"componentType":5123
				},
				"values":{
					"bufferView":19
				}
			},
			"type":"VEC3"
		},
		{
			"componentType":5126,
			"count":9140,
			"sparse":{
				"count":2076,
				"indices":{
					"bufferView":20,
					"componentType":5123
				},
				"values":{
					"bufferView":21
				}
			},
			"type":"VEC3"
		},
		{
			"componentType":5126,
			"count":9140,
			"max":[
				0.0016590505838394165,
				0.017389893531799316,
				0.006657414138317108
			],
			"min":[
				-0.0016626138240098953,
				-3.135204315185547e-05,
				-0.0019365474581718445
			],
			"sparse":{
				"count":418,
				"indices":{
					"bufferView":22,
					"componentType":5123
				},
				"values":{
					"bufferView":23
				}
			},
			"type":"VEC3"
		},
		{
			"componentType":5126,
			"count":9140,
			"sparse":{
				"count":2165,
				"indices":{
					"bufferView":24,
					"componentType":5123
				},
				"values":{
					"bufferView":25
				}
			},
			"type":"VEC3"
		},
		{
			"componentType":5126,
			"count":9140,
			"max":[
				0.002148844301700592,
				0.01202237606048584,
				0.0009257271885871887
			],
			"min":[
				-9.299255907535553e-06,
				-0.0003609657287597656,
				-0.0035728812217712402
			],
			"sparse":{
				"count":244,
				"indices":{
					"bufferView":26,
					"componentType":5123
				},
				"values":{
					"bufferView":27
				}
			},
			"type":"VEC3"
		},
		{
			"componentType":5126,
			"count":9140,
			"sparse":{
				"count":2020,
				"indices":{
					"bufferView":28,
					"componentType":5123
				},
				"values":{
					"bufferView":29
				}
			},
			"type":"VEC3"
		},
		{
			"componentType":5126,
			"count":9140,
			"max":[
				1.2637116014957428e-05,
				0.012063741683959961,
				0.0009431838989257812
			],
			"min":[
				-0.0021594837307929993,
				-0.00035452842712402344,
				-0.0035728737711906433
			],
			"sparse":{
				"count":246,
				"indices":{
					"bufferView":30,
					"componentType":5123
				},
				"values":{
					"bufferView":31
				}
			},
			"type":"VEC3"
		},
		{
			"componentType":5126,
			"count":9140,
			"sparse":{
				"count":2027,
				"indices":{
					"bufferView":32,
					"componentType":5123
				},
				"values":{
					"bufferView":33
				}
			},
			"type":"VEC3"
		},
		{
			"componentType":5126,
			"count":9140,
			"max":[
				0.000209711492061615,
				0.0037987232208251953,
				0.0012947171926498413
			],
			"min":[
				-0.0014590620994567871,
				-9.942054748535156e-05,
				-9.268522262573242e-06
			],
			"sparse":{
				"count":153,
				"indices":{
					"bufferView":34,
					"componentType":5123
				},
				"values":{
					"bufferView":35
				}
			},
			"type":"VEC3"
		},
		{
			"componentType":5126,
			"count":9140,
			"sparse":{
				"count":1938,
				"indices":{
					"bufferView":36,
					"componentType":5123
				},
				"values":{
					"bufferView":37
				}
			},
			"type":"VEC3"
		},
		{
			"componentType":5126,
			"count":9140,
			"max":[
				0.001150384545326233,
				0.003948569297790527,
				0.0015334635972976685
			],
			"min":[
				-0.0006353259086608887,
				0,
				-1.099705696105957e-05
			],
			"sparse":{
				"count":145,
				"indices":{
					"bufferView":38,
					"componentType":5123
				},
				"values":{
					"bufferView":39
				}
			},
			"type":"VEC3"
		},
		{
			"componentType":5126,
			"count":9140,
			"sparse":{
				"count":1934,
				"indices":{
					"bufferView":40,
					"componentType":5123
				},
				"values":{
					"bufferView":41
				}
			},
			"type":"VEC3"
		},
		{
			"componentType":5126,
			"count":9140,
			"max":[
				0.0007348544895648956,
				0.004901766777038574,
				0.00025191158056259155
			],
			"min":[
				-0.0009537804871797562,
				-0.004443168640136719,
				-0.002643577754497528
			],
			"sparse":{
				"count":218,
				"indices":{
					"bufferView":42,
					"componentType":5123
				},
				"values":{
					"bufferView":43
				}
			},
			"type":"VEC3"
		},
		{
			"componentType":5126,
			"count":9140,
			"sparse":{
				"count":1982,
				"indices":{
					"bufferView":44,
					"componentType":5123
				},
				"values":{
					"bufferView":45
				}
			},
			"type":"VEC3"
		},
		{
			"componentType":5126,
			"count":9140,
			"max":[
				0.0009517967700958252,
				0.004448294639587402,
				0.00024941563606262207
			],
			"min":[
				-0.0005245693027973175,
				-0.004370212554931641,
				-0.0026722773909568787
			],
			"sparse":{
				"count":222,
				"indices":{
					"bufferView":46,
					"componentType":5123
				},
				"values":{
					"bufferView":47
				}
			},
			"type":"VEC3"
		},
		{
			"componentType":5126,
			"count":9140,
			"sparse":{
				"count":2002,
				"indices":{
					"bufferView":48,
					"componentType":5123
				},
				"values":{
					"bufferView":49
				}
			},
			"type":"VEC3"
		},
		{
			"componentType":5126,
			"count":9140,
			"max":[
				0,
				0.0007704496383666992,
				0.008342050015926361
			],
			"min":[
				-1.8189894035458565e-12,
				-0.0007703304290771484,
				-2.2351741790771484e-08
			],
			"sparse":{
				"count":1437,
				"indices":{
					"bufferView":50,
					"componentType":5123
				},
				"values":{
					"bufferView":51
				}
			},
			"type":"VEC3"
		},
		{
			"componentType":5126,
			"count":9140,
			"sparse":{
				"count":2966,
				"indices":{
					"bufferView":52,
					"componentType":5123
				},
				"values":{
					"bufferView":53
				}
			},
			"type":"VEC3"
		},
		{
			"componentType":5126,
			"count":9140,
			"max":[
				0.008923323825001717,
				0.0017938613891601562,
				0.0026826784014701843
			],
			"min":[
				-8.881784197001252e-16,
				-0.0018860101699829102,
				-0.0011008195579051971
			],
			"sparse":{
				"count":1428,
				"indices":{
					"bufferView":54,
					"componentType":5123
				},
				"values":{
					"bufferView":55
				}
			},
			"type":"VEC3"
		},
		{
			"componentType":5126,
			"count":9140,
			"sparse":{
				"count":2961,
				"indices":{
					"bufferView":56,
					"componentType":5123
				},
				"values":{
					"bufferView":57
				}
			},
			"type":"VEC3"
		},
		{
			"componentType":5126,
			"count":9140,
			"max":[
				0,
				0.001793980598449707,
				0.002683401107788086
			],
			"min":[
				-0.008922676555812359,
				-0.001886129379272461,
				-0.0011024624109268188
			],
			"sparse":{
				"count":1441,
				"indices":{
					"bufferView":58,
					"componentType":5123
				},
				"values":{
					"bufferView":59
				}
			},
			"type":"VEC3"
		},
		{
			"componentType":5126,
			"count":9140,
			"sparse":{
				"count":2963,
				"indices":{
					"bufferView":60,
					"componentType":5123
				},
				"values":{
					"bufferView":61
				}
			},
			"type":"VEC3"
		},
		{
			"componentType":5126,
			"count":9140,
			"max":[
				0.00208243727684021,
				2.4318695068359375e-05,
				0.0009490922093391418
			],
			"min":[
				-0.0009405985474586487,
				-0.009158849716186523,
				-0.005037292838096619
			],
			"sparse":{
				"count":629,
				"indices":{
					"bufferView":62,
					"componentType":5123
				},
				"values":{
					"bufferView":63
				}
			},
			"type":"VEC3"
		},
		{
			"componentType":5126,
			"count":9140,
			"sparse":{
				"count":2401,
				"indices":{
					"bufferView":64,
					"componentType":5123
				},
				"values":{
					"bufferView":65
				}
			},
			"type":"VEC3"
		},
		{
			"componentType":5126,
			"count":9140,
			"max":[
				0.0009409673511981964,
				2.8371810913085938e-05,
				0.0009461641311645508
			],
			"min":[
				-0.002081815153360367,
				-0.009157896041870117,
				-0.005036056041717529
			],
			"sparse":{
				"count":631,
				"indices":{
					"bufferView":66,
					"componentType":5123
				},
				"values":{
					"bufferView":67
				}
			},
			"type":"VEC3"
		},
		{
			"componentType":5126,
			"count":9140,
			"sparse":{
				"count":2397,
				"indices":{
					"bufferView":68,
					"componentType":5123
				},
				"values":{
					"bufferView":69
				}
			},
			"type":"VEC3"
		},
		{
			"componentType":5126,
			"count":9140,
			"max":[
				0.0068056415766477585,
				0.0037326812744140625,
				0.008716687560081482
			],
			"min":[
				-0.006873020902276039,
				-0.00292360782623291,
				-0.00010846555233001709
			],
			"sparse":{
				"count":842,
				"indices":{
					"bufferView":70,
					"componentType":5123
				},
				"values":{
					"bufferView":71
				}
			},
			"type":"VEC3"
		},
		{
			"componentType":5126,
			"count":9140,
			"sparse":{
				"count":2543,
				"indices":{
					"bufferView":72,
					"componentType":5123
				},
				"values":{
					"bufferView":73
				}
			},
			"type":"VEC3"
		},
		{
			"componentType":5126,
			"count":9140,
			"max":[
				0.0006598159670829773,
				0.007746100425720215,
				0.002727821469306946
			],
			"min":[
				-0.000654599629342556,
				0,
				0
			],
			"sparse":{
				"count":341,
				"indices":{
					"bufferView":74,
					"componentType":5123
				},
				"values":{
					"bufferView":75
				}
			},
			"type":"VEC3"
		},
		{
			"componentType":5126,
			"count":9140,
			"sparse":{
				"count":2139,
				"indices":{
					"bufferView":76,
					"componentType":5123
				},
				"values":{
					"bufferView":77
				}
			},
			"type":"VEC3"
		},
		{
			"componentType":5126,
			"count":9140,
			"max":[
				0.0014280527830123901,
				0.006145596504211426,
				0.0019682347774505615
			],
			"min":[
				-0.0014163022860884666,
				-3.3855438232421875e-05,
				-0.0006744712591171265
			],
			"sparse":{
				"count":689,
				"indices":{
					"bufferView":78,
					"componentType":5123
				},
				"values":{
					"bufferView":79
				}
			},
			"type":"VEC3"
		},
		{
			"componentType":5126,
			"count":9140,
			"sparse":{
				"count":2425,
				"indices":{
					"bufferView":80,
					"componentType":5123
				},
				"values":{
					"bufferView":81
				}
			},
			"type":"VEC3"
		},
		{
			"componentType":5126,
			"count":9140,
			"max":[
				0.002086332067847252,
				0.005960583686828613,
				0.0007092952728271484
			],
			"min":[
				-0.00023365765810012817,
				-0.0036619901657104492,
				-2.1532177925109863e-05
			],
			"sparse":{
				"count":833,
				"indices":{
					"bufferView":82,
					"componentType":5123
				},
				"values":{
					"bufferView":83
				}
			},
			"type":"VEC3"
		},
		{
			"componentType":5126,
			"count":9140,
			"sparse":{
				"count":2550,
				"indices":{
					"bufferView":84,
					"componentType":5123
				},
				"values":{
					"bufferView":85
				}
			},
			"type":"VEC3"
		},
		{
			"componentType":5126,
			"count":9140,
			"max":[
				0.00023319199681282043,
				0.005974769592285156,
				0.0007130801677703857
			],
			"min":[
				-0.0020876415073871613,
				-0.0042999982833862305,
				-2.880394458770752e-05
			],
			"sparse":{
				"count":866,
				"indices":{
					"bufferView":86,
					"componentType":5123
				},
				"values":{
					"bufferView":87
				}
			},
			"type":"VEC3"
		},
		{
			"componentType":5126,
			"count":9140,
			"sparse":{
				"count":2573,
				"indices":{
					"bufferView":88,
					"componentType":5123
				},
				"values":{
					"bufferView":89
				}
			},
			"type":"VEC3"
		},
		{
			"componentType":5126,
			"count":9140,
			"max":[
				0.003285452723503113,
				0.0008745193481445312,
				0
			],
			"min":[
				-0.0007168492302298546,
				-0.006697297096252441,
				-0.0036522597074508667
			],
			"sparse":{
				"count":374,
				"indices":{
					"bufferView":90,
					"componentType":5123
				},
				"values":{
					"bufferView":91
				}
			},
			"type":"VEC3"
		},
		{
			"componentType":5126,
			"count":9140,
			"sparse":{
				"count":2177,
				"indices":{
					"bufferView":92,
					"componentType":5123
				},
				"values":{
					"bufferView":93
				}
			},
			"type":"VEC3"
		},
		{
			"componentType":5126,
			"count":9140,
			"max":[
				0.00071677565574646,
				0.0008742809295654297,
				2.2046267986297607e-05
			],
			"min":[
				-0.0032827891409397125,
				-0.006693601608276367,
				-0.0036522597074508667
			],
			"sparse":{
				"count":382,
				"indices":{
					"bufferView":94,
					"componentType":5123
				},
				"values":{
					"bufferView":95
				}
			},
			"type":"VEC3"
		},
		{
			"componentType":5126,
			"count":9140,
			"sparse":{
				"count":2167,
				"indices":{
					"bufferView":96,
					"componentType":5123
				},
				"values":{
					"bufferView":97
				}
			},
			"type":"VEC3"
		},
		{
			"componentType":5126,
			"count":9140,
			"max":[
				0.010337475687265396,
				0.006184697151184082,
				0.0031423643231391907
			],
			"min":[
				-0.004703765735030174,
				-0.00402987003326416,
				-0.005932822823524475
			],
			"sparse":{
				"count":1603,
				"indices":{
					"bufferView":98,
					"componentType":5123
				},
				"values":{
					"bufferView":99
				}
			},
			"type":"VEC3"
		},
		{
			"componentType":5126,
			"count":9140,
			"sparse":{
				"count":3101,
				"indices":{
					"bufferView":100,
					"componentType":5123
				},
				"values":{
					"bufferView":101
				}
			},
			"type":"VEC3"
		},
		{
			"componentType":5126,
			"count":9140,
			"max":[
				0.004707233980298042,
				0.006184220314025879,
				0.0031321942806243896
			],
			"min":[
				-0.010336656123399734,
				-0.004013538360595703,
				-0.005932897329330444
			],
			"sparse":{
				"count":1621,
				"indices":{
					"bufferView":102,
					"componentType":5123
				},
				"values":{
					"bufferView":103
				}
			},
			"type":"VEC3"
		},
		{
			"componentType":5126,
			"count":9140,
			"sparse":{
				"count":3119,
				"indices":{
					"bufferView":104,
					"componentType":5123
				},
				"values":{
					"bufferView":105
				}
			},
			"type":"VEC3"
		},
		{
			"componentType":5126,
			"count":9140,
			"max":[
				0.0008278526365756989,
				0.0029768943786621094,
				0.008660838007926941
			],
			"min":[
				-0.00016919150948524475,
				-0.0080718994140625,
				-0.008443929255008698
			],
			"sparse":{
				"count":309,
				"indices":{
					"bufferView":106,
					"componentType":5123
				},
				"values":{
					"bufferView":107
				}
			},
			"type":"VEC3"
		},
		{
			"componentType":5126,
			"count":9140,
			"sparse":{
				"count":2055,
				"indices":{
					"bufferView":108,
					"componentType":5123
				},
				"values":{
					"bufferView":109
				}
			},
			"type":"VEC3"
		},
		{
			"componentType":5126,
			"count":9140,
			"max":[
				0.0001999102532863617,
				0.0029987096786499023,
				0.008660688996315002
			],
			"min":[
				-0.0008675642311573029,
				-0.00807201862335205,
				-0.008517667651176453
			],
			"sparse":{
				"count":316,
				"indices":{
					"bufferView":110,
					"componentType":5123
				},
				"values":{
					"bufferView":111
				}
			},
			"type":"VEC3"
		},
		{
			"componentType":5126,
			"count":9140,
			"sparse":{
				"count":2072,
				"indices":{
					"bufferView":112,
					"componentType":5123
				},
				"values":{
					"bufferView":113
				}
			},
			"type":"VEC3"
		},
		{
			"componentType":5126,
			"count":9140,
			"max":[
				0.001143837347626686,
				0.00807201862335205,
				0.008702203631401062
			],
			"min":[
				-0.0002076178789138794,
				-0.002965688705444336,
				-0.008407212793827057
			],
			"sparse":{
				"count":308,
				"indices":{
					"bufferView":114,
					"componentType":5123
				},
				"values":{
					"bufferView":115
				}
			},
			"type":"VEC3"
		},
		{
			"componentType":5126,
			"count":9140,
			"sparse":{
				"count":2053,
				"indices":{
					"bufferView":116,
					"componentType":5123
				},
				"values":{
					"bufferView":117
				}
			},
			"type":"VEC3"
		},
		{
			"componentType":5126,
			"count":9140,
			"max":[
				0.0002288520336151123,
				0.0080718994140625,
				0.008784808218479156
			],
			"min":[
				-0.0012136045843362808,
				-0.002965569496154785,
				-0.008407093584537506
			],
			"sparse":{
				"count":317,
				"indices":{
					"bufferView":118,
					"componentType":5123
				},
				"values":{
					"bufferView":119
				}
			},
			"type":"VEC3"
		},
		{
			"componentType":5126,
			"count":9140,
			"sparse":{
				"count":2084,
				"indices":{
					"bufferView":120,
					"componentType":5123
				},
				"values":{
					"bufferView":121
				}
			},
			"type":"VEC3"
		},
		{
			"componentType":5126,
			"count":9140,
			"max":[
				0.002974756993353367,
				0.00017976760864257812,
				0.008700482547283173
			],
			"min":[
				-0.00807102769613266,
				-0.0003483295440673828,
				-0.00844554603099823
			],
			"sparse":{
				"count":309,
				"indices":{
					"bufferView":122,
					"componentType":5123
				},
				"values":{
					"bufferView":123
				}
			},
			"type":"VEC3"
		},
		{
			"componentType":5126,
			"count":9140,
			"sparse":{
				"count":2055,
				"indices":{
					"bufferView":124,
					"componentType":5123
				},
				"values":{
					"bufferView":125
				}
			},
			"type":"VEC3"
		},
		{
			"componentType":5126,
			"count":9140,
			"max":[
				0.008071057498455048,
				0.00019824504852294922,
				0.00870039314031601
			],
			"min":[
				-0.0029747523367404938,
				-0.00035190582275390625,
				-0.008445605635643005
			],
			"sparse":{
				"count":314,
				"indices":{
					"bufferView":126,
					"componentType":5123
				},
				"values":{
					"bufferView":127
				}
			},
			"type":"VEC3"
		},
		{
			"componentType":5126,
			"count":9140,
			"sparse":{
				"count":2084,
				"indices":{
					"bufferView":128,
					"componentType":5123
				},
				"values":{
					"bufferView":129
				}
			},
			"type":"VEC3"
		},
		{
			"componentType":5126,
			"count":9140,
			"max":[
				0.008072815835475922,
				0.0003077983856201172,
				0.008703723549842834
			],
			"min":[
				-0.002978481352329254,
				-0.000531315803527832,
				-0.008442401885986328
			],
			"sparse":{
				"count":317,
				"indices":{
					"bufferView":130,
					"componentType":5123
				},
				"values":{
					"bufferView":131
				}
			},
			"type":"VEC3"
		},
		{
			"componentType":5126,
			"count":9140,
			"sparse":{
				"count":2061,
				"indices":{
					"bufferView":132,
					"componentType":5123
				},
				"values":{
					"bufferView":133
				}
			},
			"type":"VEC3"
		},
		{
			"componentType":5126,
			"count":9140,
			"max":[
				0.0029784217476844788,
				0.00031828880310058594,
				0.008703775703907013
			],
			"min":[
				-0.008072860538959503,
				-0.0003851652145385742,
				-0.00844234973192215
			],
			"sparse":{
				"count":322,
				"indices":{
					"bufferView":134,
					"componentType":5123
				},
				"values":{
					"bufferView":135
				}
			},
			"type":"VEC3"
		},
		{
			"componentType":5126,
			"count":9140,
			"sparse":{
				"count":2086,
				"indices":{
					"bufferView":136,
					"componentType":5123
				},
				"values":{
					"bufferView":137
				}
			},
			"type":"VEC3"
		},
		{
			"componentType":5126,
			"count":9140,
			"max":[
				0.008296363055706024,
				0.0034461021423339844,
				0.008642278611660004
			],
			"min":[
				-0.008340362459421158,
				-0.004534125328063965,
				-1.1168420314788818e-05
			],
			"sparse":{
				"count":1122,
				"indices":{
					"bufferView":138,
					"componentType":5123
				},
				"values":{
					"bufferView":139
				}
			},
			"type":"VEC3"
		},
		{
			"componentType":5126,
			"count":9140,
			"sparse":{
				"count":2791,
				"indices":{
					"bufferView":140,
					"componentType":5123
				},
				"values":{
					"bufferView":141
				}
			},
			"type":"VEC3"
		},
		{
			"componentType":5126,
			"count":9140,
			"max":[
				0.001789923757314682,
				0.009615063667297363,
				0.0014724358916282654
			],
			"min":[
				-0.00022810697555541992,
				-0.0020121335983276367,
				-0.0007296130061149597
			],
			"sparse":{
				"count":725,
				"indices":{
					"bufferView":142,
					"componentType":5123
				},
				"values":{
					"bufferView":143
				}
			},
			"type":"VEC3"
		},
		{
			"componentType":5126,
			"count":9140,
			"sparse":{
				"count":2480,
				"indices":{
					"bufferView":144,
					"componentType":5123
				},
				"values":{
					"bufferView":145
				}
			},
			"type":"VEC3"
		},
		{
			"componentType":5126,
			"count":9140,
			"max":[
				0.0002193450927734375,
				0.00962531566619873,
				0.001475006341934204
			],
			"min":[
				-0.001780577003955841,
				-0.002010822296142578,
				-0.0007214546203613281
			],
			"sparse":{
				"count":756,
				"indices":{
					"bufferView":146,
					"componentType":5123
				},
				"values":{
					"bufferView":147
				}
			},
			"type":"VEC3"
		},
		{
			"componentType":5126,
			"count":9140,
			"sparse":{
				"count":2506,
				"indices":{
					"bufferView":148,
					"componentType":5123
				},
				"values":{
					"bufferView":149
				}
			},
			"type":"VEC3"
		},
		{
			"componentType":5126,
			"count":9140,
			"max":[
				0.004714474081993103,
				0.002408266067504883,
				0.0007071010768413544
			],
			"min":[
				-0.0047314465045928955,
				-0.03849661350250244,
				-0.03617577254772186
			],
			"sparse":{
				"count":1638,
				"indices":{
					"bufferView":150,
					"componentType":5123
				},
				"values":{
					"bufferView":151
				}
			},
			"type":"VEC3"
		},
		{
			"componentType":5126,
			"count":9140,
			"sparse":{
				"count":3171,
				"indices":{
					"bufferView":152,
					"componentType":5123
				},
				"values":{
					"bufferView":153
				}
			},
			"type":"VEC3"
		},
		{
			"componentType":5126,
			"count":9140,
			"max":[
				0.0037975553423166275,
				0.025058746337890625,
				0.015110760927200317
			],
			"min":[
				-0.003808528184890747,
				-0.014164566993713379,
				-0.004640743136405945
			],
			"sparse":{
				"count":860,
				"indices":{
					"bufferView":154,
					"componentType":5123
				},
				"values":{
					"bufferView":155
				}
			},
			"type":"VEC3"
		},
		{
			"componentType":5126,
			"count":9140,
			"sparse":{
				"count":2571,
				"indices":{
					"bufferView":156,
					"componentType":5123
				},
				"values":{
					"bufferView":157
				}
			},
			"type":"VEC3"
		},
		{
			"componentType":5126,
			"count":9140,
			"max":[
				0.008044471964240074,
				0.009702444076538086,
				0.011513091623783112
			],
			"min":[
				-0.008124446496367455,
				-0.011954426765441895,
				-0.000982239842414856
			],
			"sparse":{
				"count":857,
				"indices":{
					"bufferView":158,
					"componentType":5123
				},
				"values":{
					"bufferView":159
				}
			},
			"type":"VEC3"
		},
		{
			"componentType":5126,
			"count":9140,
			"sparse":{
				"count":2550,
				"indices":{
					"bufferView":160,
					"componentType":5123
				},
				"values":{
					"bufferView":161
				}
			},
			"type":"VEC3"
		},
		{
			"componentType":5126,
			"count":9140,
			"max":[
				0.003086380660533905,
				0.004146575927734375,
				0.001546613872051239
			],
			"min":[
				-0.0003386642783880234,
				-0.00012409687042236328,
				-0.008135855197906494
			],
			"sparse":{
				"count":662,
				"indices":{
					"bufferView":162,
					"componentType":5123
				},
				"values":{
					"bufferView":163
				}
			},
			"type":"VEC3"
		},
		{
			"componentType":5126,
			"count":9140,
			"sparse":{
				"count":2426,
				"indices":{
					"bufferView":164,
					"componentType":5123
				},
				"values":{
					"bufferView":165
				}
			},
			"type":"VEC3"
		},
		{
			"componentType":5126,
			"count":9140,
			"max":[
				0.00033885519951581955,
				0.0041179656982421875,
				0.001547306776046753
			],
			"min":[
				-0.003085669130086899,
				-0.0001239776611328125,
				-0.008135691285133362
			],
			"sparse":{
				"count":663,
				"indices":{
					"bufferView":166,
					"componentType":5123
				},
				"values":{
					"bufferView":167
				}
			},
			"type":"VEC3"
		},
		{
			"componentType":5126,
			"count":9140,
			"sparse":{
				"count":2416,
				"indices":{
					"bufferView":168,
					"componentType":5123
				},
				"values":{
					"bufferView":169
				}
			},
			"type":"VEC3"
		},
		{
			"componentType":5126,
			"count":9140,
			"max":[
				0.006936401128768921,
				0.000844120979309082,
				0.00020273029804229736
			],
			"min":[
				-0.0004018843173980713,
				-0.006545901298522949,
				-0.010800845921039581
			],
			"sparse":{
				"count":724,
				"indices":{
					"bufferView":170,
					"componentType":5123
				},
				"values":{
					"bufferView":171
				}
			},
			"type":"VEC3"
		},
		{
			"componentType":5126,
			"count":9140,
			"sparse":{
				"count":2478,
				"indices":{
					"bufferView":172,
					"componentType":5123
				},
				"values":{
					"bufferView":173
				}
			},
			"type":"VEC3"
		},
		{
			"componentType":5126,
			"count":9140,
			"max":[
				0.00040195509791374207,
				0.0008453130722045898,
				0.00020324811339378357
			],
			"min":[
				-0.006936032325029373,
				-0.006545901298522949,
				-0.010800674557685852
			],
			"sparse":{
				"count":722,
				"indices":{
					"bufferView":174,
					"componentType":5123
				},
				"values":{
					"bufferView":175
				}
			},
			"type":"VEC3"
		},
		{
			"componentType":5126,
			"count":9140,
			"sparse":{
				"count":2469,
				"indices":{
					"bufferView":176,
					"componentType":5123
				},
				"values":{
					"bufferView":177
				}
			},
			"type":"VEC3"
		},
		{
			"componentType":5126,
			"count":9140,
			"max":[
				0.0019018212333321571,
				0.006928086280822754,
				0.002897001802921295
			],
			"min":[
				-0.0018929382786154747,
				-0.0027039051055908203,
				-0.005227811634540558
			],
			"sparse":{
				"count":447,
				"indices":{
					"bufferView":178,
					"componentType":5123
				},
				"values":{
					"bufferView":179
				}
			},
			"type":"VEC3"
		},
		{
			"componentType":5126,
			"count":9140,
			"sparse":{
				"count":2230,
				"indices":{
					"bufferView":180,
					"componentType":5123
				},
				"values":{
					"bufferView":181
				}
			},
			"type":"VEC3"
		},
		{
			"componentType":5126,
			"count":9140,
			"max":[
				0.0007119830697774887,
				0.0013644695281982422,
				0.0006275326013565063
			],
			"min":[
				-0.0007089180871844292,
				-0.010270118713378906,
				-0.003957793116569519
			],
			"sparse":{
				"count":397,
				"indices":{
					"bufferView":182,
					"componentType":5123
				},
				"values":{
					"bufferView":183
				}
			},
			"type":"VEC3"
		},
		{
			"componentType":5126,
			"count":9140,
			"sparse":{
				"count":2200,
				"indices":{
					"bufferView":184,
					"componentType":5123
				},
				"values":{
					"bufferView":185
				}
			},
			"type":"VEC3"
		},
		{
			"componentType":5126,
			"count":9140,
			"max":[
				0.004441810771822929,
				0.009296774864196777,
				0.0017462298274040222
			],
			"min":[
				-0.0004618484526872635,
				-5.4717063903808594e-05,
				-0.0007800310850143433
			],
			"sparse":{
				"count":734,
				"indices":{
					"bufferView":186,
					"componentType":5123
				},
				"values":{
					"bufferView":187
				}
			},
			"type":"VEC3"
		},
		{
			"componentType":5126,
			"count":9140,
			"sparse":{
				"count":2475,
				"indices":{
					"bufferView":188,
					"componentType":5123
				},
				"values":{
					"bufferView":189
				}
			},
			"type":"VEC3"
		},
		{
			"componentType":5126,
			"count":9140,
			"max":[
				0.0004617758095264435,
				0.009296894073486328,
				0.0017464831471443176
			],
			"min":[
				-0.0044417958706617355,
				-5.519390106201172e-05,
				-0.0007789731025695801
			],
			"sparse":{
				"count":738,
				"indices":{
					"bufferView":190,
					"componentType":5123
				},
				"values":{
					"bufferView":191
				}
			},
			"type":"VEC3"
		},
		{
			"componentType":5126,
			"count":9140,
			"sparse":{
				"count":2466,
				"indices":{
					"bufferView":192,
					"componentType":5123
				},
				"values":{
					"bufferView":193
				}
			},
			"type":"VEC3"
		},
		{
			"componentType":5126,
			"count":9140,
			"max":[
				0.004048222675919533,
				0.007473945617675781,
				0.0014790520071983337
			],
			"min":[
				-0.0006475783884525299,
				0,
				-0.002843625843524933
			],
			"sparse":{
				"count":598,
				"indices":{
					"bufferView":194,
					"componentType":5123
				},
				"values":{
					"bufferView":195
				}
			},
			"type":"VEC3"
		},
		{
			"componentType":5126,
			"count":9140,
			"sparse":{
				"count":2370,
				"indices":{
					"bufferView":196,
					"componentType":5123
				},
				"values":{
					"bufferView":197
				}
			},
			"type":"VEC3"
		},
		{
			"componentType":5126,
			"count":9140,
			"max":[
				0.000647558830678463,
				0.007473587989807129,
				0.0014787167310714722
			],
			"min":[
				-0.004048667848110199,
				0,
				-0.0028436481952667236
			],
			"sparse":{
				"count":591,
				"indices":{
					"bufferView":198,
					"componentType":5123
				},
				"values":{
					"bufferView":199
				}
			},
			"type":"VEC3"
		},
		{
			"componentType":5126,
			"count":9140,
			"sparse":{
				"count":2361,
				"indices":{
					"bufferView":200,
					"componentType":5123
				},
				"values":{
					"bufferView":201
				}
			},
			"type":"VEC3"
		},
		{
			"componentType":5126,
			"count":9140,
			"max":[
				0.010253194719552994,
				0.017926931381225586,
				0.003216199576854706
			],
			"min":[
				-0.0003958325833082199,
				-0.0003045797348022461,
				-0.009766995906829834
			],
			"sparse":{
				"count":734,
				"indices":{
					"bufferView":202,
					"componentType":5123
				},
				"values":{
					"bufferView":203
				}
			},
			"type":"VEC3"
		},
		{
			"componentType":5126,
			"count":9140,
			"sparse":{
				"count":2492,
				"indices":{
					"bufferView":204,
					"componentType":5123
				},
				"values":{
					"bufferView":205
				}
			},
			"type":"VEC3"
		},
		{
			"componentType":5126,
			"count":9140,
			"max":[
				0.00038193073123693466,
				0.017925620079040527,
				0.0032158195972442627
			],
			"min":[
				-0.010255176573991776,
				-0.0003045797348022461,
				-0.009766891598701477
			],
			"sparse":{
				"count":740,
				"indices":{
					"bufferView":206,
					"componentType":5123
				},
				"values":{
					"bufferView":207
				}
			},
			"type":"VEC3"
		},
		{
			"componentType":5126,
			"count":9140,
			"sparse":{
				"count":2487,
				"indices":{
					"bufferView":208,
					"componentType":5123
				},
				"values":{
					"bufferView":209
				}
			},
			"type":"VEC3"
		},
		{
			"componentType":5126,
			"count":9140,
			"max":[
				0,
				9.226799011230469e-05,
				0.042917631566524506
			],
			"min":[
				-2.791456302220219e-13,
				-0.014125823974609375,
				0
			],
			"sparse":{
				"count":24,
				"indices":{
					"bufferView":210,
					"componentType":5123
				},
				"values":{
					"bufferView":211
				}
			},
			"type":"VEC3"
		},
		{
			"componentType":5126,
			"count":9140,
			"sparse":{
				"count":1808,
				"indices":{
					"bufferView":212,
					"componentType":5123
				},
				"values":{
					"bufferView":213
				}
			},
			"type":"VEC3"
		},
		{
			"componentType":5126,
			"count":9140,
			"max":[
				0.00047835521399974823,
				0.002969026565551758,
				0.0026573240756988525
			],
			"min":[
				-0.0023334957659244537,
				-0.009618639945983887,
				-0.002687878906726837
			],
			"sparse":{
				"count":323,
				"indices":{
					"bufferView":214,
					"componentType":5123
				},
				"values":{
					"bufferView":215
				}
			},
			"type":"VEC3"
		},
		{
			"componentType":5126,
			"count":9140,
			"sparse":{
				"count":2072,
				"indices":{
					"bufferView":216,
					"componentType":5123
				},
				"values":{
					"bufferView":217
				}
			},
			"type":"VEC3"
		},
		{
			"componentType":5126,
			"count":9140,
			"max":[
				0.0023216381669044495,
				0.003027796745300293,
				0.0026699528098106384
			],
			"min":[
				-0.00046330876648426056,
				-0.009608030319213867,
				-0.001715041697025299
			],
			"sparse":{
				"count":342,
				"indices":{
					"bufferView":218,
					"componentType":5123
				},
				"values":{
					"bufferView":219
				}
			},
			"type":"VEC3"
		},
		{
			"componentType":5126,
			"count":9140,
			"sparse":{
				"count":2102,
				"indices":{
					"bufferView":220,
					"componentType":5123
				},
				"values":{
					"bufferView":221
				}
			},
			"type":"VEC3"
		},
		{
			"componentType":5126,
			"count":9140,
			"max":[
				0.0023216381669044495,
				0.003027796745300293,
				0.0026699528098106384
			],
			"min":[
				-0.0023334957659244537,
				-0.009618639945983887,
				-0.002687878906726837
			],
			"sparse":{
				"count":612,
				"indices":{
					"bufferView":222,
					"componentType":5123
				},
				"values":{
					"bufferView":223
				}
			},
			"type":"VEC3"
		},
		{
			"componentType":5126,
			"count":9140,
			"sparse":{
				"count":2316,
				"indices":{
					"bufferView":224,
					"componentType":5123
				},
				"values":{
					"bufferView":225
				}
			},
			"type":"VEC3"
		},
		{
			"componentType":5126,
			"count":9140,
			"max":[
				0,
				0.00807201862335205,
				0.008784808218479156
			],
			"min":[
				0,
				-0.002965688705444336,
				-0.008407212793827057
			],
			"sparse":{
				"count":240,
				"indices":{
					"bufferView":226,
					"componentType":5121
				},
				"values":{
					"bufferView":227
				}
			},
			"type":"VEC3"
		},
		{
			"componentType":5126,
			"count":9140,
			"sparse":{
				"count":1999,
				"indices":{
					"bufferView":228,
					"componentType":5123
				},
				"values":{
					"bufferView":229
				}
			},
			"type":"VEC3"
		},
		{
			"componentType":5126,
			"count":9140,
			"max":[
				0,
				0.0029987096786499023,
				0.008660838007926941
			],
			"min":[
				0,
				-0.00807201862335205,
				-0.008517667651176453
			],
			"sparse":{
				"count":240,
				"indices":{
					"bufferView":230,
					"componentType":5121
				},
				"values":{
					"bufferView":231
				}
			},
			"type":"VEC3"
		},
		{
			"componentType":5126,
			"count":9140,
			"sparse":{
				"count":1999,
				"indices":{
					"bufferView":232,
					"componentType":5123
				},
				"values":{
					"bufferView":233
				}
			},
			"type":"VEC3"
		},
		{
			"bufferView":234,
			"componentType":5126,
			"count":67,
			"type":"MAT4"
		}
	],
	"bufferViews":[
		{
			"buffer":0,
			"byteLength":109680,
			"byteOffset":0,
			"target":34962
		},
		{
			"buffer":0,
			"byteLength":109680,
			"byteOffset":109680,
			"target":34962
		},
		{
			"buffer":0,
			"byteLength":73120,
			"byteOffset":219360,
			"target":34962
		},
		{
			"buffer":0,
			"byteLength":36560,
			"byteOffset":292480,
			"target":34962
		},
		{
			"buffer":0,
			"byteLength":146240,
			"byteOffset":329040,
			"target":34962
		},
		{
			"buffer":0,
			"byteLength":93042,
			"byteOffset":475280,
			"target":34963
		},
		{
			"buffer":0,
			"byteLength":1608,
			"byteOffset":568324
		},
		{
			"buffer":0,
			"byteLength":9648,
			"byteOffset":569932
		},
		{
			"buffer":0,
			"byteLength":5008,
			"byteOffset":579580
		},
		{
			"buffer":0,
			"byteLength":30048,
			"byteOffset":584588
		},
		{
			"buffer":0,
			"byteLength":2936,
			"byteOffset":614636
		},
		{
			"buffer":0,
			"byteLength":17616,
			"byteOffset":617572
		},
		{
			"buffer":0,
			"byteLength":6124,
			"byteOffset":635188
		},
		{
			"buffer":0,
			"byteLength":36744,
			"byteOffset":641312
		},
		{
			"buffer":0,
			"byteLength":566,
			"byteOffset":678056
		},
		{
			"buffer":0,
			"byteLength":3396,
			"byteOffset":678624
		},
		{
			"buffer":0,
			"byteLength":4122,
			"byteOffset":682020
		},
		{
			"buffer":0,
			"byteLength":24732,
			"byteOffset":686144
		},
		{
			"buffer":0,
			"byteLength":606,
			"byteOffset":710876
		},
		{
			"buffer":0,
			"byteLength":3636,
			"byteOffset":711484
		},
		{
			"buffer":0,
			"byteLength":4152,
			"byteOffset":715120
		},
		{
			"buffer":0,
			"byteLength":24912,
			"byteOffset":719272
		},
		{
			"buffer":0,
			"byteLength":836,
			"byteOffset":744184
		},
		{
			"buffer":0,
			"byteLength":5016,
			"byteOffset":745020
		},
		{
			"buffer":0,
			"byteLength":4330,
			"byteOffset":750036
		},
		{
			"buffer":0,
			"byteLength":25980,
			"byteOffset":754368
		},
		{
			"buffer":0,
			"byteLength":488,
			"byteOffset":780348
		},
		{
			"buffer":0,
			"byteLength":2928,
			"byteOffset":780836
		},
		{
			"buffer":0,
			"byteLength":4040,
			"byteOffset":783764
		},
		{
			"buffer":0,
			"byteLength":24240,
			"byteOffset":787804
		},
		{
			"buffer":0,
			"byteLength":492,
			"byteOffset":812044
		},
		{
			"buffer":0,
			"byteLength":2952,
			"byteOffset":812536
		},
		{
			"buffer":0,
			"byteLength":4054,
			"byteOffset":815488
		},
		{
			"buffer":0,
			"byteLength":24324,
			"byteOffset":819544
		},
		{
			"buffer":0,
			"byteLength":306,
			"byteOffset":843868
		},
		{
			"buffer":0,
			"byteLength":1836,
			"byteOffset":844176
		},
		{
			"buffer":0,
			"byteLength":3876,
			"byteOffset":846012
		},
		{
			"buffer":0,
			"byteLength":23256,
			"byteOffset":849888
		},
		{
			"buffer":0,
			"byteLength":290,
			"byteOffset":873144
		},
		{
			"buffer":0,
			"byteLength":1740,
			"byteOffset":873436
		},
		{
			"buffer":0,
			"byteLength":3868,
			"byteOffset":875176
		},
		{
			"buffer":0,
			"byteLength":23208,
			"byteOffset":879044
		},
		{
			"buffer":0,
			"byteLength":436,
			"byteOffset":902252
		},
		{
			"buffer":0,
			"byteLength":2616,
			"byteOffset":902688
		},
		{
			"buffer":0,
			"byteLength":3964,
			"byteOffset":905304
		},
		{
			"buffer":0,
			"byteLength":23784,
			"byteOffset":909268
		},
		{
			"buffer":0,
			"byteLength":444,
			"byteOffset":933052
		},
		{
			"buffer":0,
			"byteLength":2664,
			"byteOffset":933496
		},
		{
			"buffer":0,
			"byteLength":4004,
			"byteOffset":936160
		},
		{
			"buffer":0,
			"byteLength":24024,
			"byteOffset":940164
		},
		{
			"buffer":0,
			"byteLength":2874,
			"byteOffset":964188
		},
		{
			"buffer":0,
			"byteLength":17244,
			"byteOffset":967064
		},
		{
			"buffer":0,
			"byteLength":5932,
			"byteOffset":984308
		},
		{
			"buffer":0,
			"byteLength":35592,
			"byteOffset":990240
		},
		{
			"buffer":0,
			"byteLength":2856,
			"byteOffset":1025832
		},
		{
			"buffer":0,
			"byteLength":17136,
			"byteOffset":1028688
		},
		{
			"buffer":0,
			"byteLength":5922,
			"byteOffset":1045824
		},
		{
			"buffer":0,
			"byteLength":35532,
			"byteOffset":1051748
		},
		{
			"buffer":0,
			"byteLength":2882,
			"byteOffset":1087280
		},
		{
			"buffer":0,
			"byteLength":17292,
			"byteOffset":1090164
		},
		{
			"buffer":0,
			"byteLength":5926,
			"byteOffset":1107456
		},
		{
			"buffer":0,
			"byteLength":35556,
			"byteOffset":1113384
		},
		{
			"buffer":0,
			"byteLength":1258,
			"byteOffset":1148940
		},
		{
			"buffer":0,
			"byteLength":7548,
			"byteOffset":1150200
		},
		{
			"buffer":0,
			"byteLength":4802,
			"byteOffset":1157748
		},
		{
			"buffer":0,
			"byteLength":28812,
			"byteOffset":1162552
		},
		{
			"buffer":0,
			"byteLength":1262,
			"byteOffset":1191364
		},
		{
			"buffer":0,
			"byteLength":7572,
			"byteOffset":1192628
		},
		{
			"buffer":0,
			"byteLength":4794,
			"byteOffset":1200200
		},
		{
			"buffer":0,
			"byteLength":28764,
			"byteOffset":1204996
		},
		{
			"buffer":0,
			"byteLength":1684,
			"byteOffset":1233760
		},
		{
			"buffer":0,
			"byteLength":10104,
			"byteOffset":1235444
		},
		{
			"buffer":0,
			"byteLength":5086,
			"byteOffset":1245548
		},
		{
			"buffer":0,
			"byteLength":30516,
			"byteOffset":1250636
		},
		{
			"buffer":0,
			"byteLength":682,
			"byteOffset":1281152
		},
		{
			"buffer":0,
			"byteLength":4092,
			"byteOffset":1281836
		},
		{
			"buffer":0,
			"byteLength":4278,
			"byteOffset":1285928
		},
		{
			"buffer":0,
			"byteLength":25668,
			"byteOffset":1290208
		},
		{
			"buffer":0,
			"byteLength":1378,
			"byteOffset":1315876
		},
		{
			"buffer":0,
			"byteLength":8268,
			"byteOffset":1317256
		},
		{
			"buffer":0,
			"byteLength":4850,
			"byteOffset":1325524
		},
		{
			"buffer":0,
			"byteLength":29100,
			"byteOffset":1330376
		},
		{
			"buffer":0,
			"byteLength":1666,
			"byteOffset":1359476
		},
		{
			"buffer":0,
			"byteLength":9996,
			"byteOffset":1361144
		},
		{
			"buffer":0,
			"byteLength":5100,
			"byteOffset":1371140
		},
		{
			"buffer":0,
			"byteLength":30600,
			"byteOffset":1376240
		},
		{
			"buffer":0,
			"byteLength":1732,
			"byteOffset":1406840
		},
		{
			"buffer":0,
			"byteLength":10392,
			"byteOffset":1408572
		},
		{
			"buffer":0,
			"byteLength":5146,
			"byteOffset":1418964
		},
		{
			"buffer":0,
			"byteLength":30876,
			"byteOffset":1424112
		},
		{
			"buffer":0,
			"byteLength":748,
			"byteOffset":1454988
		},
		{
			"buffer":0,
			"byteLength":4488,
			"byteOffset":1455736
		},
		{
			"buffer":0,
			"byteLength":4354,
			"byteOffset":1460224
		},
		{
			"buffer":0,
			"byteLength":26124,
			"byteOffset":1464580
		},
		{
			"buffer":0,
			"byteLength":764,
			"byteOffset":1490704
		},
		{
			"buffer":0,
			"byteLength":4584,
			"byteOffset":1491468
		},
		{
			"buffer":0,
			"byteLength":4334,
			"byteOffset":1496052
		},
		{
			"buffer":0,
			"byteLength":26004,
			"byteOffset":1500388
		},
		{
			"buffer":0,
			"byteLength":3206,
			"byteOffset":1526392
		},
		{
			"buffer":0,
			"byteLength":19236,
			"byteOffset":1529600
		},
		{
			"buffer":0,
			"byteLength":6202,
			"byteOffset":1548836
		},
		{
			"buffer":0,
			"byteLength":37212,
			"byteOffset":1555040
		},
		{
			"buffer":0,
			"byteLength":3242,
			"byteOffset":1592252
		},
		{
			"buffer":0,
			"byteLength":19452,
			"byteOffset":1595496
		},
		{
			"buffer":0,
			"byteLength":6238,
			"byteOffset":1614948
		},
		{
			"buffer":0,
			"byteLength":37428,
			"byteOffset":1621188
		},
		{
			"buffer":0,
			"byteLength":618,
			"byteOffset":1658616
		},
		{
			"buffer":0,
			"byteLength":3708,
			"byteOffset":1659236
		},
		{
			"buffer":0,
			"byteLength":4110,
			"byteOffset":1662944
		},
		{
			"buffer":0,
			"byteLength":24660,
			"byteOffset":1667056
		},
		{
			"buffer":0,
			"byteLength":632,
			"byteOffset":1691716
		},
		{
			"buffer":0,
			"byteLength":3792,
			"byteOffset":1692348
		},
		{
			"buffer":0,
			"byteLength":4144,
			"byteOffset":1696140
		},
		{
			"buffer":0,
			"byteLength":24864,
			"byteOffset":1700284
		},
		{
			"buffer":0,
			"byteLength":616,
			"byteOffset":1725148
		},
		{
			"buffer":0,
			"byteLength":3696,
			"byteOffset":1725764
		},
		{
			"buffer":0,
			"byteLength":4106,
			"byteOffset":1729460
		},
		{
			"buffer":0,
			"byteLength":24636,
			"byteOffset":1733568
		},
		{
			"buffer":0,
			"byteLength":634,
			"byteOffset":1758204
		},
		{
			"buffer":0,
			"byteLength":3804,
			"byteOffset":1758840
		},
		{
			"buffer":0,
			"byteLength":4168,
			"byteOffset":1762644
		},
		{
			"buffer":0,
			"byteLength":25008,
			"byteOffset":1766812
		},
		{
			"buffer":0,
			"byteLength":618,
			"byteOffset":1791820
		},
		{
			"buffer":0,
			"byteLength":3708,
			"byteOffset":1792440
		},
		{
			"buffer":0,
			"byteLength":4110,
			"byteOffset":1796148
		},
		{
			"buffer":0,
			"byteLength":24660,
			"byteOffset":1800260
		},
		{
			"buffer":0,
			"byteLength":628,
			"byteOffset":1824920
		},
		{
			"buffer":0,
			"byteLength":3768,
			"byteOffset":1825548
		},
		{
			"buffer":0,
			"byteLength":4168,
			"byteOffset":1829316
		},
		{
			"buffer":0,
			"byteLength":25008,
			"byteOffset":1833484
		},
		{
			"buffer":0,
			"byteLength":634,
			"byteOffset":1858492
		},
		{
			"buffer":0,
			"byteLength":3804,
			"byteOffset":1859128
		},
		{
			"buffer":0,
			"byteLength":4122,
			"byteOffset":1862932
		},
		{
			"buffer":0,
			"byteLength":24732,
			"byteOffset":1867056
		},
		{
			"buffer":0,
			"byteLength":644,
			"byteOffset":1891788
		},
		{
			"buffer":0,
			"byteLength":3864,
			"byteOffset":1892432
		},
		{
			"buffer":0,
			"byteLength":4172,
			"byteOffset":1896296
		},
		{
			"buffer":0,
			"byteLength":25032,
			"byteOffset":1900468
		},
		{
			"buffer":0,
			"byteLength":2244,
			"byteOffset":1925500
		},
		{
			"buffer":0,
			"byteLength":13464,
			"byteOffset":1927744
		},
		{
			"buffer":0,
			"byteLength":5582,
			"byteOffset":1941208
		},
		{
			"buffer":0,
			"byteLength":33492,
			"byteOffset":1946792
		},
		{
			"buffer":0,
			"byteLength":1450,
			"byteOffset":1980284
		},
		{
			"buffer":0,
			"byteLength":8700,
			"byteOffset":1981736
		},
		{
			"buffer":0,
			"byteLength":4960,
			"byteOffset":1990436
		},
		{
			"buffer":0,
			"byteLength":29760,
			"byteOffset":1995396
		},
		{
			"buffer":0,
			"byteLength":1512,
			"byteOffset":2025156
		},
		{
			"buffer":0,
			"byteLength":9072,
			"byteOffset":2026668
		},
		{
			"buffer":0,
			"byteLength":5012,
			"byteOffset":2035740
		},
		{
			"buffer":0,
			"byteLength":30072,
			"byteOffset":2040752
		},
		{
			"buffer":0,
			"byteLength":3276,
			"byteOffset":2070824
		},
		{
			"buffer":0,
			"byteLength":19656,
			"byteOffset":2074100
		},
		{
			"buffer":0,
			"byteLength":6342,
			"byteOffset":2093756
		},
		{
			"buffer":0,
			"byteLength":38052,
			"byteOffset":2100100
		},
		{
			"buffer":0,
			"byteLength":1720,
			"byteOffset":2138152
		},
		{
			"buffer":0,
			"byteLength":10320,
			"byteOffset":2139872
		},
		{
			"buffer":0,
			"byteLength":5142,
			"byteOffset":2150192
		},
		{
			"buffer":0,
			"byteLength":30852,
			"byteOffset":2155336
		},
		{
			"buffer":0,
			"byteLength":1714,
			"byteOffset":2186188
		},
		{
			"buffer":0,
			"byteLength":10284,
			"byteOffset":2187904
		},
		{
			"buffer":0,
			"byteLength":5100,
			"byteOffset":2198188
		},
		{
			"buffer":0,
			"byteLength":30600,
			"byteOffset":2203288
		},
		{
			"buffer":0,
			"byteLength":1324,
			"byteOffset":2233888
		},
		{
			"buffer":0,
			"byteLength":7944,
			"byteOffset":2235212
		},
		{
			"buffer":0,
			"byteLength":4852,
			"byteOffset":2243156
		},
		{
			"buffer":0,
			"byteLength":29112,
			"byteOffset":2248008
		},
		{
			"buffer":0,
			"byteLength":1326,
			"byteOffset":2277120
		},
		{
			"buffer":0,
			"byteLength":7956,
			"byteOffset":2278448
		},
		{
			"buffer":0,
			"byteLength":4832,
			"byteOffset":2286404
		},
		{
			"buffer":0,
			"byteLength":28992,
			"byteOffset":2291236
		},
		{
			"buffer":0,
			"byteLength":1448,
			"byteOffset":2320228
		},
		{
			"buffer":0,
			"byteLength":8688,
			"byteOffset":2321676
		},
		{
			"buffer":0,
			"byteLength":4956,
			"byteOffset":2330364
		},
		{
			"buffer":0,
			"byteLength":29736,
			"byteOffset":2335320
		},
		{
			"buffer":0,
			"byteLength":1444,
			"byteOffset":2365056
		},
		{
			"buffer":0,
			"byteLength":8664,
			"byteOffset":2366500
		},
		{
			"buffer":0,
			"byteLength":4938,
			"byteOffset":2375164
		},
		{
			"buffer":0,
			"byteLength":29628,
			"byteOffset":2380104
		},
		{
			"buffer":0,
			"byteLength":894,
			"byteOffset":2409732
		},
		{
			"buffer":0,
			"byteLength":5364,
			"byteOffset":2410628
		},
		{
			"buffer":0,
			"byteLength":4460,
			"byteOffset":2415992
		},
		{
			"buffer":0,
			"byteLength":26760,
			"byteOffset":2420452
		},
		{
			"buffer":0,
			"byteLength":794,
			"byteOffset":2447212
		},
		{
			"buffer":0,
			"byteLength":4764,
			"byteOffset":2448008
		},
		{
			"buffer":0,
			"byteLength":4400,
			"byteOffset":2452772
		},
		{
			"buffer":0,
			"byteLength":26400,
			"byteOffset":2457172
		},
		{
			"buffer":0,
			"byteLength":1468,
			"byteOffset":2483572
		},
		{
			"buffer":0,
			"byteLength":8808,
			"byteOffset":2485040
		},
		{
			"buffer":0,
			"byteLength":4950,
			"byteOffset":2493848
		},
		{
			"buffer":0,
			"byteLength":29700,
			"byteOffset":2498800
		},
		{
			"buffer":0,
			"byteLength":1476,
			"byteOffset":2528500
		},
		{
			"buffer":0,
			"byteLength":8856,
			"byteOffset":2529976
		},
		{
			"buffer":0,
			"byteLength":4932,
			"byteOffset":2538832
		},
		{
			"buffer":0,
			"byteLength":29592,
			"byteOffset":2543764
		},
		{
			"buffer":0,
			"byteLength":1196,
			"byteOffset":2573356
		},
		{
			"buffer":0,
			"byteLength":7176,
			"byteOffset":2574552
		},
		{
			"buffer":0,
			"byteLength":4740,
			"byteOffset":2581728
		},
		{
			"buffer":0,
			"byteLength":28440,
			"byteOffset":2586468
		},
		{
			"buffer":0,
			"byteLength":1182,
			"byteOffset":2614908
		},
		{
			"buffer":0,
			"byteLength":7092,
			"byteOffset":2616092
		},
		{
			"buffer":0,
			"byteLength":4722,
			"byteOffset":2623184
		},
		{
			"buffer":0,
			"byteLength":28332,
			"byteOffset":2627908
		},
		{
			"buffer":0,
			"byteLength":1468,
			"byteOffset":2656240
		},
		{
			"buffer":0,
			"byteLength":8808,
			"byteOffset":2657708
		},
		{
			"buffer":0,
			"byteLength":4984,
			"byteOffset":2666516
		},
		{
			"buffer":0,
			"byteLength":29904,
			"byteOffset":2671500
		},
		{
			"buffer":0,
			"byteLength":1480,
			"byteOffset":2701404
		},
		{
			"buffer":0,
			"byteLength":8880,
			"byteOffset":2702884
		},
		{
			"buffer":0,
			"byteLength":4974,
			"byteOffset":2711764
		},
		{
			"buffer":0,
			"byteLength":29844,
			"byteOffset":2716740
		},
		{
			"buffer":0,
			"byteLength":48,
			"byteOffset":2746584
		},
		{
			"buffer":0,
			"byteLength":288,
			"byteOffset":2746632
		},
		{
			"buffer":0,
			"byteLength":3616,
			"byteOffset":2746920
		},
		{
			"buffer":0,
			"byteLength":21696,
			"byteOffset":2750536
		},
		{
			"buffer":0,
			"byteLength":646,
			"byteOffset":2772232
		},
		{
			"buffer":0,
			"byteLength":3876,
			"byteOffset":2772880
		},
		{
			"buffer":0,
			"byteLength":4144,
			"byteOffset":2776756
		},
		{
			"buffer":0,
			"byteLength":24864,
			"byteOffset":2780900
		},
		{
			"buffer":0,
			"byteLength":684,
			"byteOffset":2805764
		},
		{
			"buffer":0,
			"byteLength":4104,
			"byteOffset":2806448
		},
		{
			"buffer":0,
			"byteLength":4204,
			"byteOffset":2810552
		},
		{
			"buffer":0,
			"byteLength":25224,
			"byteOffset":2814756
		},
		{
			"buffer":0,
			"byteLength":1224,
			"byteOffset":2839980
		},
		{
			"buffer":0,
			"byteLength":7344,
			"byteOffset":2841204
		},
		{
			"buffer":0,
			"byteLength":4632,
			"byteOffset":2848548
		},
		{
			"buffer":0,
			"byteLength":27792,
			"byteOffset":2853180
		},
		{
			"buffer":0,
			"byteLength":240,
			"byteOffset":2880972
		},
		{
			"buffer":0,
			"byteLength":2880,
			"byteOffset":2881212
		},
		{
			"buffer":0,
			"byteLength":3998,
			"byteOffset":2884092
		},
		{
			"buffer":0,
			"byteLength":23988,
			"byteOffset":2888092
		},
		{
			"buffer":0,
			"byteLength":240,
			"byteOffset":2912080
		},
		{
			"buffer":0,
			"byteLength":2880,
			"byteOffset":2912320
		},
		{
			"buffer":0,
			"byteLength":3998,
			"byteOffset":2915200
		},
		{
			"buffer":0,
			"byteLength":23988,
			"byteOffset":2919200
		},
		{
			"buffer":0,
			"byteLength":4288,
			"byteOffset":2943188
		}
	],
	"samplers":[
		{
			"magFilter":9729,
			"minFilter":9987
		},
		{
			"magFilter":9728,
			"minFilter":9984
		}
	],
	"buffers":[
		{
			"byteLength":2947476,
			"uri":"avatar.bin"
		}
	]
}
